<?xml version="1.0" encoding="UTF-8" standalone="no"?>
<!DOCTYPE svg PUBLIC "-//W3C//DTD SVG 1.1//EN" "http://www.w3.org/Graphics/SVG/1.1/DTD/svg11.dtd">
<svg width="100%" height="100%" viewBox="0 0 525 605" version="1.1" xmlns="http://www.w3.org/2000/svg" xmlns:xlink="http://www.w3.org/1999/xlink" xml:space="preserve" xmlns:serif="http://www.serif.com/" style="fill-rule:evenodd;clip-rule:evenodd;stroke-miterlimit:2;">
    <g transform="matrix(1,0,0,1,-1012.86,-882.25)">
        <g transform="matrix(4.16667,0,0,4.16667,0,0)">
            <path d="M368.354,320.299L306,356.299L243.646,320.299L243.646,248.299L306,212.299L368.354,248.299L368.354,320.299Z" style="fill:none;stroke:rgb(46,48,146);stroke-width:0.5px;"/>
            <path d="M367.733,320.405L305.794,356.294L243.855,320.405L243.855,248.629L305.794,212.741L367.733,248.629L367.733,320.405ZM305.132,226.977C273.643,226.977 248.023,252.398 248.023,283.644C248.023,314.894 273.643,340.314 305.132,340.314C336.62,340.314 362.243,314.894 362.243,283.644C362.242,252.398 336.62,226.977 305.132,226.977ZM305.132,337.717C275.087,337.717 250.642,313.46 250.642,283.644C250.642,253.831 275.086,229.576 305.132,229.576C335.176,229.576 359.619,253.831 359.619,283.644C359.619,313.46 335.176,337.717 305.132,337.717ZM305.991,287.897L291.292,330.28C295.681,331.561 300.323,332.261 305.132,332.261C310.837,332.261 316.308,331.282 321.401,329.505C321.269,329.297 321.15,329.076 321.052,328.835L305.991,287.897ZM256.14,283.644C256.14,302.887 267.41,319.516 283.752,327.396L260.381,263.86C257.664,269.906 256.14,276.596 256.14,283.644ZM348.119,260.321C348.33,261.869 348.449,263.531 348.449,265.32C348.449,270.253 347.521,275.798 344.724,282.732L329.76,325.665C344.324,317.237 354.121,301.58 354.121,283.645C354.122,275.193 351.946,267.245 348.119,260.321ZM338.205,281.191C338.205,275.183 336.03,271.022 334.164,267.784C331.681,263.779 329.353,260.388 329.353,256.384C329.353,251.915 332.769,247.755 337.58,247.755C337.797,247.755 338.003,247.782 338.215,247.794C329.499,239.87 317.886,235.032 305.132,235.032C288.017,235.032 272.959,243.746 264.199,256.944C265.348,256.979 266.431,257.003 267.351,257.003C272.476,257.003 280.408,256.386 280.408,256.386C283.049,256.231 283.36,260.08 280.722,260.39C280.722,260.39 278.068,260.7 275.115,260.853L292.955,313.511L303.677,281.604L296.044,260.852C293.406,260.698 290.906,260.388 290.906,260.388C288.266,260.235 288.576,256.229 291.216,256.384C291.216,256.384 299.306,257.001 304.12,257.001C309.244,257.001 317.177,256.384 317.177,256.384C319.82,256.229 320.13,260.078 317.491,260.388C317.491,260.388 314.831,260.698 311.884,260.852L329.588,313.11L334.475,296.906C336.593,290.182 338.205,285.353 338.205,281.191Z" style="fill:rgb(72,67,66);"/>
            <path d="M367.733,320.405L305.794,356.294L243.855,320.405L243.855,248.629L305.794,212.741L367.733,248.629L367.733,320.405ZM305.132,226.977C273.643,226.977 248.023,252.398 248.023,283.644C248.023,314.894 273.643,340.314 305.132,340.314C336.62,340.314 362.243,314.894 362.243,283.644C362.242,252.398 336.62,226.977 305.132,226.977ZM305.132,337.717C275.087,337.717 250.642,313.46 250.642,283.644C250.642,253.831 275.086,229.576 305.132,229.576C335.176,229.576 359.619,253.831 359.619,283.644C359.619,313.46 335.176,337.717 305.132,337.717ZM305.991,287.897L291.292,330.28C295.681,331.561 300.323,332.261 305.132,332.261C310.837,332.261 316.308,331.282 321.401,329.505C321.269,329.297 321.15,329.076 321.052,328.835L305.991,287.897ZM256.14,283.644C256.14,302.887 267.41,319.516 283.752,327.396L260.381,263.86C257.664,269.906 256.14,276.596 256.14,283.644ZM348.119,260.321C348.33,261.869 348.449,263.531 348.449,265.32C348.449,270.253 347.521,275.798 344.724,282.732L329.76,325.665C344.324,317.237 354.121,301.58 354.121,283.645C354.122,275.193 351.946,267.245 348.119,260.321ZM338.205,281.191C338.205,275.183 336.03,271.022 334.164,267.784C331.681,263.779 329.353,260.388 329.353,256.384C329.353,251.915 332.769,247.755 337.58,247.755C337.797,247.755 338.003,247.782 338.215,247.794C329.499,239.87 317.886,235.032 305.132,235.032C288.017,235.032 272.959,243.746 264.199,256.944C265.348,256.979 266.431,257.003 267.351,257.003C272.476,257.003 280.408,256.386 280.408,256.386C283.049,256.231 283.36,260.08 280.722,260.39C280.722,260.39 278.068,260.7 275.115,260.853L292.955,313.511L303.677,281.604L296.044,260.852C293.406,260.698 290.906,260.388 290.906,260.388C288.266,260.235 288.576,256.229 291.216,256.384C291.216,256.384 299.306,257.001 304.12,257.001C309.244,257.001 317.177,256.384 317.177,256.384C319.82,256.229 320.13,260.078 317.491,260.388C317.491,260.388 314.831,260.698 311.884,260.852L329.588,313.11L334.475,296.906C336.593,290.182 338.205,285.353 338.205,281.191Z" style="fill:none;stroke:rgb(46,48,146);stroke-width:0.5px;"/>
        </g>
    </g>
</svg>
